<svg width="132" height="73" viewBox="0 0 132 73" fill="none" xmlns="http://www.w3.org/2000/svg">
<g clip-path="url(#clip0_50_135)">
<path d="M25.7001 51.63C24.8601 51.63 24.0701 51.09 23.8001 50.25C22.3601 45.81 21.6201 41.18 21.6201 36.47C21.6201 30.24 22.8801 24.22 25.3701 18.57C25.8101 17.56 26.9901 17.1 28.0101 17.55C29.0201 17.99 29.4801 19.17 29.0301 20.19C26.7701 25.33 25.6201 30.81 25.6201 36.48C25.6201 40.77 26.2901 44.99 27.6001 49.02C27.9401 50.07 27.3701 51.2 26.3201 51.54C26.1101 51.61 25.9101 51.64 25.7001 51.64V51.63Z" fill="#D8F2B8"/>
<path d="M17.1201 47.35C16.1701 47.35 15.3301 46.67 15.1501 45.7C14.6001 42.67 14.3301 39.56 14.3301 36.46C14.3301 32.02 14.8901 27.62 16.0001 23.36C16.2801 22.29 17.3701 21.65 18.4401 21.93C19.5101 22.21 20.1501 23.3 19.8701 24.37C18.8501 28.29 18.3301 32.36 18.3301 36.46C18.3301 39.33 18.5901 42.2 19.0901 44.99C19.2901 46.08 18.5601 47.12 17.4801 47.31C17.3601 47.33 17.2401 47.34 17.1201 47.34V47.35Z" fill="white"/>
<path d="M9.53988 42.83C8.49988 42.83 7.62988 42.03 7.54988 40.98C7.43988 39.48 7.37988 37.96 7.37988 36.46C7.37988 33.56 7.58988 30.65 8.00988 27.8C8.16988 26.71 9.18988 25.95 10.2799 26.11C11.3699 26.27 12.1299 27.29 11.9699 28.38C11.5799 31.03 11.3799 33.75 11.3799 36.45C11.3799 37.85 11.4299 39.27 11.5399 40.66C11.6199 41.76 10.7999 42.72 9.69988 42.81C9.64988 42.81 9.59988 42.81 9.54988 42.81L9.53988 42.83Z" fill="#D8F2B8"/>
<path d="M105.97 51.63C105.76 51.63 105.56 51.6 105.35 51.53C104.3 51.19 103.73 50.06 104.07 49.01C105.38 44.97 106.05 40.75 106.05 36.47C106.05 30.8 104.9 25.32 102.64 20.18C102.2 19.17 102.65 17.99 103.66 17.54C104.67 17.09 105.85 17.55 106.3 18.56C108.79 24.21 110.05 30.24 110.05 36.46C110.05 41.17 109.32 45.8 107.87 50.24C107.6 51.08 106.81 51.62 105.97 51.62V51.63Z" fill="#D8F2B8"/>
<path d="M114.55 47.35C114.43 47.35 114.31 47.35 114.19 47.32C113.1 47.12 112.38 46.08 112.58 45C113.08 42.2 113.34 39.33 113.34 36.47C113.34 32.37 112.82 28.31 111.8 24.38C111.52 23.31 112.16 22.22 113.23 21.94C114.3 21.66 115.39 22.3 115.67 23.37C116.78 27.62 117.34 32.03 117.34 36.47C117.34 39.57 117.06 42.68 116.52 45.71C116.35 46.68 115.5 47.36 114.55 47.36V47.35Z" fill="white"/>
<path d="M122.13 42.83C122.08 42.83 122.03 42.83 121.98 42.83C120.88 42.75 120.05 41.79 120.14 40.68C120.25 39.29 120.3 37.87 120.3 36.47C120.3 33.76 120.1 31.05 119.71 28.4C119.55 27.31 120.3 26.29 121.4 26.13C122.5 25.97 123.51 26.72 123.67 27.82C124.09 30.66 124.3 33.57 124.3 36.48C124.3 37.98 124.24 39.5 124.13 41C124.05 42.05 123.17 42.85 122.14 42.85L122.13 42.83Z" fill="#D8F2B8"/>
<path d="M2 38.47C0.9 38.47 0 37.57 0 36.47V32.08C0 30.98 0.9 30.08 2 30.08C3.1 30.08 4 30.98 4 32.08V36.47C4 37.57 3.1 38.47 2 38.47Z" fill="white"/>
<path d="M129.74 38.47C128.64 38.47 127.74 37.57 127.74 36.47V32.08C127.74 30.98 128.64 30.08 129.74 30.08C130.84 30.08 131.74 30.98 131.74 32.08V36.47C131.74 37.57 130.84 38.47 129.74 38.47Z" fill="white"/>
<path d="M96.5199 16.36L93.0599 43.28L75.6899 57.03C75.3199 57.32 74.8799 57.46 74.4499 57.46C73.8599 57.46 73.2699 57.2 72.8799 56.7C72.1899 55.83 72.3399 54.58 73.2099 53.89L89.2999 41.16L93.0599 11.91C86.3899 4.59 76.7899 0 66.0999 0C45.9599 0 29.6399 16.33 29.6399 36.46C29.6399 56.59 45.9699 72.92 66.0999 72.92C86.2299 72.92 102.56 56.59 102.56 36.46C102.56 29.03 100.33 22.12 96.5199 16.36ZM43.3299 20.64C40.7099 25.2 39.1499 31.12 39.1499 36.47C39.1499 40.76 39.8199 44.98 41.1299 49.01C41.4699 50.06 40.8999 51.19 39.8499 51.53C39.6399 51.6 39.4399 51.63 39.2299 51.63C38.3899 51.63 37.5999 51.09 37.3299 50.25C35.8899 45.81 35.1499 41.18 35.1499 36.47C35.1499 30.37 36.8699 23.87 39.8599 18.65C40.4099 17.69 41.6299 17.36 42.5899 17.91C43.5499 18.46 43.8799 19.68 43.3299 20.64ZM53.4999 36.47C53.4999 29.52 59.1399 23.88 66.0899 23.88C73.0399 23.88 78.6799 29.52 78.6799 36.47C78.6799 43.42 73.0399 49.06 66.0899 49.06C59.1399 49.06 53.4999 43.42 53.4999 36.47Z" fill="#D8F2B8"/>
<path d="M66.0998 38.77C67.3756 38.77 68.4098 37.7358 68.4098 36.46C68.4098 35.1842 67.3756 34.15 66.0998 34.15C64.824 34.15 63.7898 35.1842 63.7898 36.46C63.7898 37.7358 64.824 38.77 66.0998 38.77Z" fill="#D8F2B8"/>
</g>
<defs>
<clipPath id="clip0_50_135">
<rect width="131.74" height="72.93" fill="white"/>
</clipPath>
</defs>
</svg>
